Coordinates
version=1
nRows=54
nColumns=12
inDegrees=yes

Units are S.I. units (second, meters, Newtons, ...)
Angles are in degrees

endheader
time	SC_y	SC_z	SC_x	AC_y	AC_z	AC_x	GH_y	GH_z	GH_yy	EL_x	PS_y
       0.0              -41.39          31.75          41.18          30.16         -7.673          15.94          82.38          87.38         -119.2          30.72          103.8
    0.0262              -41.39          31.74          41.18          30.17         -7.672          15.94          82.37          87.36         -119.2          30.73          103.8
    0.0524              -41.39          31.73          41.18          30.17         -7.671          15.94          82.37          87.35         -119.2          30.75          103.8
   0.07859              -41.39          31.73          41.19          30.18          -7.67          15.94          82.37          87.34         -119.2          30.76          103.7
    0.1048              -41.39          31.72           41.2          30.19         -7.668          15.94          82.36          87.32         -119.1          30.78          103.7
     0.131              -41.38          31.71           41.2          30.19         -7.667          15.95          82.36          87.31         -119.1          30.79          103.7
    0.1572              -41.38          31.71          41.21           30.2         -7.666          15.95          82.35          87.29         -119.1          30.81          103.7
    0.1834              -41.38           31.7          41.22          30.21         -7.664          15.95          82.35          87.28         -119.1          30.83          103.7
    0.2096              -41.38          31.69          41.22          30.21         -7.662          15.95          82.34          87.26         -119.1          30.85          103.7
    0.2358              -41.37          31.68          41.23          30.22         -7.661          15.95          82.34          87.24         -119.1          30.88          103.7
     0.262              -41.37          31.67          41.24          30.23         -7.659          15.95          82.33          87.22         -119.1           30.9          103.7
    0.2882              -41.36          31.66          41.25          30.24         -7.657          15.95          82.33          87.19         -119.1          30.93          103.7
    0.3144              -41.36          31.65          41.26          30.25         -7.655          15.95          82.32          87.17         -119.1          30.96          103.6
    0.3406              -41.36          31.64          41.27          30.26         -7.652          15.95          82.31          87.14         -119.0          30.99          103.6
    0.3668              -41.35          31.63          41.28          30.27          -7.65          15.95           82.3          87.11         -119.0          31.02          103.6
     0.393              -41.35          31.61           41.3          30.29         -7.647          15.95          82.29          87.08         -119.0          31.05          103.6
    0.4192              -41.34           31.6          41.31           30.3         -7.644          15.95          82.29          87.05         -119.0          31.09          103.6
    0.4454              -41.34          31.58          41.32          30.32         -7.641          15.95          82.27          87.01         -119.0          31.14          103.5
    0.4716              -41.33          31.56          41.34          30.33         -7.637          15.95          82.26          86.97         -118.9          31.18          103.5
    0.4978              -41.32          31.54          41.36          30.35         -7.633          15.95          82.25          86.93         -118.9          31.23          103.5
     0.524              -41.31          31.52          41.38          30.37         -7.629          15.95          82.24          86.88         -118.9          31.29          103.5
    0.5502              -41.31           31.5           41.4           30.4         -7.624          15.95          82.22          86.82         -118.9          31.35          103.4
    0.5764               -41.3          31.47          41.42          30.42         -7.619          15.95          82.21          86.76         -118.8          31.42          103.4
    0.6026              -41.29          31.44          41.45          30.45         -7.613          15.95          82.19           86.7         -118.8          31.49          103.4
    0.6288              -41.27          31.41          41.48          30.48         -7.607          15.95          82.17          86.63         -118.8          31.58          103.3
     0.655              -41.26          31.37          41.51          30.51           -7.6          15.95          82.14          86.55         -118.7          31.67          103.3
    0.6812              -41.25          31.33          41.55          30.55         -7.592          15.95          82.12          86.45         -118.7          31.77          103.2
    0.7073              -41.23          31.28          41.59          30.59         -7.583          15.95          82.09          86.35         -118.6          31.89          103.2
    0.7335              -41.21          31.23          41.64          30.64         -7.572          15.95          82.06          86.24         -118.5          32.02          103.1
    0.7597              -41.19          31.17          41.69           30.7         -7.561          15.95          82.02          86.11         -118.5          32.17          103.0
    0.7859              -41.17           31.1          41.75          30.76         -7.548          15.95          81.98          85.96         -118.4          32.34          102.9
    0.8121              -41.14          31.03          41.82          30.83         -7.532          15.96          81.93          85.78         -118.3          32.54          102.8
    0.8383              -41.11          30.94          41.91          30.92         -7.515          15.96          81.87          85.59         -118.2          32.77          102.7
    0.8645              -41.07          30.83           42.0          31.01         -7.494          15.96          81.81          85.35         -118.0          33.03          102.6
    0.8907              -41.03          30.71          42.11          31.13         -7.471          15.96          81.73          85.08         -117.9          33.34          102.4
    0.9169              -40.97          30.57          42.24          31.26         -7.443          15.96          81.64          84.77         -117.7          33.71          102.2
    0.9431              -40.91           30.4          42.39          31.42         -7.409          15.97          81.53          84.39         -117.5          34.14          102.0
    0.9693              -40.84          30.19          42.58          31.61         -7.369          15.97           81.4          83.94         -117.2          34.66          101.7
    0.9955              -40.75          29.94           42.8          31.84         -7.321          15.97          81.25          83.39         -116.9          35.28          101.4
     1.022              -40.65          29.64          43.08          32.12         -7.262          15.98          81.06          82.72         -116.5          36.05          101.0
     1.048              -40.51          29.27          43.41          32.47         -7.189          15.98          80.82          81.89         -116.1           37.0          100.5
     1.074              -40.35           28.8          43.83           32.9         -7.098          15.99          80.53          80.86         -115.5          38.18          99.84
       1.1              -40.14          28.22          44.36          33.45         -6.983           16.0          80.17          79.56         -114.8          39.66          99.06
     1.127              -39.87          27.47          45.04          34.14         -6.837          16.01           79.7          77.91         -113.8          41.55          98.07
     1.153              -39.53          26.52           45.9          35.03          -6.65          16.02           79.1           75.8         -112.6          43.97           96.8
     1.179               -39.1          25.29          47.01          36.17         -6.411          16.04          78.33          73.09         -111.1          47.08          95.17
     1.205              -38.54          23.73          48.42          37.62         -6.105          16.07          77.35          69.63         -109.1          51.04          93.08
     1.231              -37.84          21.76           50.2          39.45         -5.721           16.1          76.12          65.27         -106.7          56.03          90.46
     1.258              -36.98          19.36          52.37          41.68         -5.252          16.13          74.62          59.97         -103.7          62.11          87.26
     1.284               -36.0          16.59          54.88          44.27         -4.709          16.17          72.87          53.82         -100.2          69.15          83.56
      1.31              -34.92          13.58           57.6          47.07          -4.12          16.22          70.99          47.16         -96.41          76.77          79.55
     1.336              -33.85          10.57          60.31          49.87         -3.532          16.27           69.1           40.5         -92.64           84.4          75.54
     1.362              -32.86          7.791          62.83          52.45         -2.989          16.31          67.36          34.35         -89.16          91.44          71.84
     1.388              -32.01          5.394          64.99          54.68          -2.52          16.34          65.86          29.05         -86.15          97.52          68.64
